<svg width="24" height="28" viewBox="0 0 24 28" fill="none" xmlns="http://www.w3.org/2000/svg">
<g id="site">
<path id="Vector" fill-rule="evenodd" clip-rule="evenodd" d="M2.66667 0C1.95942 0 1.28115 0.270468 0.781048 0.751903C0.280951 1.23334 0 1.88631 0 2.56716V24.2597C0 24.4451 0.0379366 24.6287 0.111643 24.8C0.18535 24.9713 0.293384 25.1269 0.429577 25.258C0.565769 25.3892 0.727454 25.4932 0.905398 25.5641C1.08334 25.6351 1.27406 25.6716 1.46667 25.6716H22.5333C22.7259 25.6716 22.9167 25.6351 23.0946 25.5641C23.2725 25.4932 23.4342 25.3892 23.5704 25.258C23.7066 25.1269 23.8146 24.9713 23.8884 24.8C23.9621 24.6287 24 24.4451 24 24.2597V11.5522C24 10.8714 23.719 10.2184 23.219 9.73696C22.7189 9.25552 22.0406 8.98506 21.3333 8.98506H20.6667C20.4899 8.98506 20.3203 9.05267 20.1953 9.17303C20.0702 9.29339 20 9.45663 20 9.62685V23.1044H18.6667V2.56716C18.6667 1.88631 18.3857 1.23334 17.8856 0.751903C17.3855 0.270468 16.7072 0 16 0H2.66667ZM9.33333 3.85074C8.97971 3.85074 8.64057 3.98597 8.39052 4.22669C8.14048 4.46741 8 4.79389 8 5.13432V6.4179H6.66667C6.31305 6.4179 5.97391 6.55313 5.72386 6.79385C5.47381 7.03457 5.33333 7.36105 5.33333 7.70148C5.33333 8.0419 5.47381 8.36839 5.72386 8.6091C5.97391 8.84982 6.31305 8.98506 6.66667 8.98506H8V10.2686C8 10.6091 8.14048 10.9355 8.39052 11.1763C8.64057 11.417 8.97971 11.5522 9.33333 11.5522C9.68696 11.5522 10.0261 11.417 10.2761 11.1763C10.5262 10.9355 10.6667 10.6091 10.6667 10.2686V8.98506H12C12.3536 8.98506 12.6928 8.84982 12.9428 8.6091C13.1929 8.36839 13.3333 8.0419 13.3333 7.70148C13.3333 7.36105 13.1929 7.03457 12.9428 6.79385C12.6928 6.55313 12.3536 6.4179 12 6.4179H10.6667V5.13432C10.6667 4.79389 10.5262 4.46741 10.2761 4.22669C10.0261 3.98597 9.68696 3.85074 9.33333 3.85074ZM9.33333 15.403C8.62609 15.403 7.94781 15.6734 7.44772 16.1549C6.94762 16.6363 6.66667 17.2893 6.66667 17.9701V23.1044H12V17.9701C12 17.2893 11.719 16.6363 11.219 16.1549C10.7189 15.6734 10.0406 15.403 9.33333 15.403Z" fill="black"/>
</g>
</svg>
